<?xml version="1.0" encoding="iso-8859-1"?>
<!-- Generator: Adobe Illustrator 19.0.0, SVG Export Plug-In . SVG Version: 6.00 Build 0)  -->
<svg version="1.1" id="Capa_1" xmlns="http://www.w3.org/2000/svg" xmlns:xlink="http://www.w3.org/1999/xlink" x="0px" y="0px"
	 viewBox="0 0 512 512" style="enable-background:new 0 0 512 512;" xml:space="preserve" fill="orange">
<g>
	<g>
		<path d="M391,175V15c0-8.284-6.716-15-15-15H136c-8.284,0-15,6.716-15,15v160c0,4.693,2.197,9.116,5.937,11.952l91.67,69.516
			C164.815,272.586,125.5,322.534,125.5,381.5c0,71.958,58.542,130.5,130.5,130.5s130.5-58.542,130.5-130.5
			c0-58.966-39.315-108.914-93.106-125.032l91.67-69.516C388.803,184.116,391,179.693,391,175z M181.936,191.009L151,167.55V30
			h30.936V191.009z M356.5,381.5c0,55.416-45.084,100.5-100.5,100.5s-100.5-45.084-100.5-100.5S200.584,281,256,281
			S356.5,326.084,356.5,381.5z M300.064,213.759L256,247.175l-44.064-33.416V30h88.128V213.759z M361,167.55l-30.936,23.459V30H361
			V167.55z"/>
	</g>
</g>
<g>
	<g>
		<path d="M323.232,364.973c-1.619-4.982-5.72-8.759-10.819-9.963l-28.428-6.711l-15.167-24.963
			c-2.721-4.478-7.58-7.211-12.819-7.211s-10.098,2.733-12.818,7.211l-15.167,24.963l-28.428,6.711
			c-5.099,1.204-9.2,4.98-10.819,9.963c-1.619,4.983-0.521,10.449,2.896,14.42l19.053,22.14l-2.401,29.109
			c-0.431,5.222,1.894,10.289,6.133,13.369c4.238,3.079,9.776,3.724,14.609,1.7L256,434.432l26.942,11.279
			c4.832,2.022,10.37,1.38,14.609-1.7s6.563-8.147,6.133-13.369l-2.401-29.109l19.053-22.14
			C323.753,375.422,324.852,369.956,323.232,364.973z M274.448,386.723c-2.621,3.045-3.91,7.014-3.58,11.018l0.888,10.765
			l-9.964-4.171c-3.703-1.551-7.88-1.553-11.586,0l-9.964,4.171l0.888-10.765c0.33-4.004-0.959-7.973-3.58-11.018l-7.046-8.188
			l10.513-2.482c3.91-0.923,7.286-3.376,9.373-6.81l5.609-9.231l5.609,9.231c2.087,3.434,5.464,5.887,9.373,6.81l10.513,2.482
			L274.448,386.723z"/>
	</g>
</g>
<g>
</g>
<g>
</g>
<g>
</g>
<g>
</g>
<g>
</g>
<g>
</g>
<g>
</g>
<g>
</g>
<g>
</g>
<g>
</g>
<g>
</g>
<g>
</g>
<g>
</g>
<g>
</g>
<g>
</g>
</svg>
